<?xml version="1.0" encoding="UTF-8" standalone="no"?>
<svg
   width="48"
   height="48"
   viewBox="0 0 48 48"
   version="1.1"
   id="svg66578"
   sodipodi:docname="3D folder.svg"
   inkscape:version="1.2.1 (9c6d41e410, 2022-07-14)"
   xmlns:inkscape="http://www.inkscape.org/namespaces/inkscape"
   xmlns:sodipodi="http://sodipodi.sourceforge.net/DTD/sodipodi-0.dtd"
   xmlns="http://www.w3.org/2000/svg"
   xmlns:svg="http://www.w3.org/2000/svg">
  <sodipodi:namedview
     id="namedview66580"
     pagecolor="#ffffff"
     bordercolor="#000000"
     borderopacity="0.25"
     inkscape:showpageshadow="2"
     inkscape:pageopacity="0.0"
     inkscape:pagecheckerboard="0"
     inkscape:deskcolor="#d1d1d1"
     showgrid="false"
     inkscape:zoom="21.395833"
     inkscape:cx="16.00779"
     inkscape:cy="24.046738"
     inkscape:window-width="2560"
     inkscape:window-height="1349"
     inkscape:window-x="-11"
     inkscape:window-y="-11"
     inkscape:window-maximized="1"
     inkscape:current-layer="g66552" />
  <defs
     id="defs66544">
    <clipPath
       id="clip-0">
      <path
         clip-rule="nonzero"
         d="M 24 5 L 43 5 L 43 24 L 24 24 Z M 24 5 "
         id="path66514" />
    </clipPath>
    <clipPath
       id="clip-1">
      <path
         clip-rule="nonzero"
         d="M 24.75 5.25 L 38.25 5.25 C 40.726562 5.25 42.75 7.273438 42.75 9.75 L 42.75 23.25 L 30.75 23.25 C 27.449219 23.25 24.75 20.550781 24.75 17.25 Z M 24.75 5.25 "
         id="path66517" />
    </clipPath>
    <clipPath
       id="clip-2">
      <path
         clip-rule="nonzero"
         d="M 37 17 L 43 17 L 43 24 L 37 24 Z M 37 17 "
         id="path66520" />
    </clipPath>
    <clipPath
       id="clip-3">
      <path
         clip-rule="nonzero"
         d="M 24.75 5.25 L 38.25 5.25 C 40.726562 5.25 42.75 7.273438 42.75 9.75 L 42.75 23.25 L 30.75 23.25 C 27.449219 23.25 24.75 20.550781 24.75 17.25 Z M 24.75 5.25 "
         id="path66523" />
    </clipPath>
    <clipPath
       id="clip-4">
      <path
         clip-rule="nonzero"
         d="M 27 12 L 31 12 L 31 16 L 27 16 Z M 27 12 "
         id="path66526" />
    </clipPath>
    <clipPath
       id="clip-5">
      <path
         clip-rule="nonzero"
         d="M 24.75 5.25 L 38.25 5.25 C 40.726562 5.25 42.75 7.273438 42.75 9.75 L 42.75 23.25 L 30.75 23.25 C 27.449219 23.25 24.75 20.550781 24.75 17.25 Z M 24.75 5.25 "
         id="path66529" />
    </clipPath>
    <clipPath
       id="clip-6">
      <path
         clip-rule="nonzero"
         d="M 32 12 L 36 12 L 36 16 L 32 16 Z M 32 12 "
         id="path66532" />
    </clipPath>
    <clipPath
       id="clip-7">
      <path
         clip-rule="nonzero"
         d="M 24.75 5.25 L 38.25 5.25 C 40.726562 5.25 42.75 7.273438 42.75 9.75 L 42.75 23.25 L 30.75 23.25 C 27.449219 23.25 24.75 20.550781 24.75 17.25 Z M 24.75 5.25 "
         id="path66535" />
    </clipPath>
    <clipPath
       id="clip-8">
      <path
         clip-rule="nonzero"
         d="M 36 12 L 41 12 L 41 16 L 36 16 Z M 36 12 "
         id="path66538" />
    </clipPath>
    <clipPath
       id="clip-9">
      <path
         clip-rule="nonzero"
         d="M 24.75 5.25 L 38.25 5.25 C 40.726562 5.25 42.75 7.273438 42.75 9.75 L 42.75 23.25 L 30.75 23.25 C 27.449219 23.25 24.75 20.550781 24.75 17.25 Z M 24.75 5.25 "
         id="path66541" />
    </clipPath>
  </defs>
  <path
     fill-rule="nonzero"
     fill="#11111b"
     fill-opacity="1"
     d="M 9.75 5.25 L 38.25 5.25 C 40.726562 5.25 42.75 7.273438 42.75 9.75 L 42.75 38.25 C 42.75 40.726562 40.726562 42.75 38.25 42.75 L 9.75 42.75 C 7.273438 42.75 5.25 40.726562 5.25 38.25 L 5.25 9.75 C 5.25 7.273438 7.273438 5.25 9.75 5.25 Z M 9.75 5.25 "
     id="path66546"
     style="fill:#2a283e;fill-opacity:1" />
  <g
     clip-path="url(#clip-0)"
     id="g66552">
    <g
       clip-path="url(#clip-1)"
       id="g66550"
       style="fill:#907aa9;fill-opacity:1">
      <path
         fill-rule="nonzero"
         fill="#b4befe"
         fill-opacity="1"
         d="M 24.75 5.25 L 38.25 5.25 C 40.726562 5.25 42.75 7.273438 42.75 9.75 L 42.75 23.25 L 30.75 23.25 C 27.449219 23.25 24.75 20.550781 24.75 17.25 Z M 24.75 5.25 "
         id="path66548"
         style="fill:#907aa9;fill-opacity:1" />
    </g>
  </g>
  <g
     clip-path="url(#clip-4)"
     id="g66564">
    <g
       clip-path="url(#clip-5)"
       id="g66562">
      <path
         fill-rule="nonzero"
         fill="#11111b"
         fill-opacity="1"
         d="M 30.824219 14.25 C 30.824219 15.203125 30.050781 15.976562 29.101562 15.976562 C 28.148438 15.976562 27.375 15.203125 27.375 14.25 C 27.375 13.296875 28.148438 12.523438 29.101562 12.523438 C 30.050781 12.523438 30.824219 13.296875 30.824219 14.25 Z M 30.824219 14.25 "
         id="path66560"
         style="fill:#2a283e;fill-opacity:1" />
    </g>
  </g>
  <g
     clip-path="url(#clip-6)"
     id="g66570"
     style="fill:#2a283e;fill-opacity:1">
    <g
       clip-path="url(#clip-7)"
       id="g66568"
       style="fill:#2a283e;fill-opacity:1">
      <path
         fill-rule="nonzero"
         fill="#11111b"
         fill-opacity="1"
         d="M 35.476562 14.25 C 35.476562 15.203125 34.703125 15.976562 33.75 15.976562 C 32.796875 15.976562 32.023438 15.203125 32.023438 14.25 C 32.023438 13.296875 32.796875 12.523438 33.75 12.523438 C 34.703125 12.523438 35.476562 13.296875 35.476562 14.25 Z M 35.476562 14.25 "
         id="path66566"
         style="fill:#2a283e;fill-opacity:1" />
    </g>
  </g>
  <g
     clip-path="url(#clip-8)"
     id="g66576"
     style="fill:#2a283e;fill-opacity:1">
    <g
       clip-path="url(#clip-9)"
       id="g66574"
       style="fill:#2a283e;fill-opacity:1">
      <path
         fill-rule="nonzero"
         fill="#11111b"
         fill-opacity="1"
         d="M 40.125 14.25 C 40.125 15.203125 39.351562 15.976562 38.398438 15.976562 C 37.449219 15.976562 36.675781 15.203125 36.675781 14.25 C 36.675781 13.296875 37.449219 12.523438 38.398438 12.523438 C 39.351562 12.523438 40.125 13.296875 40.125 14.25 Z M 40.125 14.25 "
         id="path66572"
         style="fill:#2a283e;fill-opacity:1" />
    </g>
  </g>
</svg>
