<?xml version="1.0" encoding="UTF-8" standalone="no"?>
<!-- Generator: Adobe Illustrator 25.2.0, SVG Export Plug-In . SVG Version: 6.00 Build 0)  -->

<svg
   version="1.1"
   id="Layer_1"
   x="0px"
   y="0px"
   viewBox="0 0 24 24"
   style="enable-background:new 0 0 24 24;"
   xml:space="preserve"
   sodipodi:docname="cloud.svg"
   inkscape:version="1.2.1 (9c6d41e410, 2022-07-14)"
   xmlns:inkscape="http://www.inkscape.org/namespaces/inkscape"
   xmlns:sodipodi="http://sodipodi.sourceforge.net/DTD/sodipodi-0.dtd"
   xmlns="http://www.w3.org/2000/svg"
   xmlns:svg="http://www.w3.org/2000/svg"><defs
   id="defs13" /><sodipodi:namedview
   id="namedview11"
   pagecolor="#ffffff"
   bordercolor="#000000"
   borderopacity="0.25"
   inkscape:showpageshadow="2"
   inkscape:pageopacity="0.0"
   inkscape:pagecheckerboard="0"
   inkscape:deskcolor="#d1d1d1"
   showgrid="false"
   inkscape:zoom="42.791667"
   inkscape:cx="9.9902629"
   inkscape:cy="12"
   inkscape:window-width="2560"
   inkscape:window-height="1349"
   inkscape:window-x="-11"
   inkscape:window-y="-11"
   inkscape:window-maximized="1"
   inkscape:current-layer="g8" />
<style
   type="text/css"
   id="style2">
	.st0{fill:#b4befe;enable-background:new    ;}
	.st1{fill:#11111b;}
</style>
<g
   id="g8">
	<path
   class="st0"
   d="M6,3h12c1.7,0,3,1.3,3,3v12c0,1.7-1.3,3-3,3H6c-1.7,0-3-1.3-3-3V6C3,4.3,4.3,3,6,3z"
   id="path4"
   style="fill:#3e8fb0;fill-opacity:1" />
	<path
   class="st1"
   d="M11.5,6.5c-2,0-3.7,1.4-4.3,3.4c-1.3,0.7-2.1,2-2.1,3.6c0,2.2,1.6,4,3.7,4c0.9,0,1.8-0.3,2.4-1.1   c0.1,0,0.2,0,0.3,0c0.7,0,1.3-0.2,2-0.5c0.6,0.3,1.1,0.5,1.7,0.5c2,0,3.7-1.8,3.7-4s-1.6-4-3.7-4C14.4,7.2,13,6.5,11.5,6.5z"
   id="path6"
   style="fill:#2a283e;fill-opacity:1" />
</g>
</svg>
