<?xml version="1.0" encoding="UTF-8" standalone="no"?>
<svg
   width="48"
   height="48"
   viewBox="0 0 48 48"
   fill="none"
   version="1.1"
   id="svg6"
   sodipodi:docname="computer.svg"
   inkscape:version="1.2.1 (9c6d41e410, 2022-07-14)"
   xmlns:inkscape="http://www.inkscape.org/namespaces/inkscape"
   xmlns:sodipodi="http://sodipodi.sourceforge.net/DTD/sodipodi-0.dtd"
   xmlns="http://www.w3.org/2000/svg"
   xmlns:svg="http://www.w3.org/2000/svg">
  <defs
     id="defs10" />
  <sodipodi:namedview
     id="namedview8"
     pagecolor="#ffffff"
     bordercolor="#000000"
     borderopacity="0.25"
     inkscape:showpageshadow="2"
     inkscape:pageopacity="0.0"
     inkscape:pagecheckerboard="0"
     inkscape:deskcolor="#d1d1d1"
     showgrid="false"
     inkscape:zoom="15.129139"
     inkscape:cx="-1.2228059"
     inkscape:cy="24.621361"
     inkscape:window-width="2560"
     inkscape:window-height="1349"
     inkscape:window-x="-11"
     inkscape:window-y="-11"
     inkscape:window-maximized="1"
     inkscape:current-layer="svg6" />
  <rect
     x="5.25"
     y="5.25"
     width="37.5"
     height="37.5"
     rx="6.25"
     fill="#f5c2e7"
     id="rect2"
     style="stroke-width:2.08333;fill:#ea9a97;fill-opacity:1" />
  <path
     fill-rule="evenodd"
     clip-rule="evenodd"
     d="m 13.791669,16.708354 c 0,-0.773562 0.307291,-1.515416 0.854271,-2.062396 0.546979,-0.546979 1.288854,-0.85427 2.062395,-0.85427 h 14.583334 c 0.773541,0 1.515416,0.307291 2.062291,0.85427 0.547083,0.54698 0.854374,1.288834 0.854374,2.062396 V 28.375 c 0,0.773542 -0.307291,1.515417 -0.854374,2.0625 -0.546875,0.546875 -1.28875,0.854167 -2.062292,0.854167 h -3.2375 l 0.179375,0.713125 1.1725,1.1725 c 0.203958,0.203958 0.342708,0.46375 0.398958,0.746666 0.05625,0.282709 0.02729,0.576042 -0.08292,0.8425 -0.110416,0.266459 -0.297291,0.494167 -0.537083,0.654375 -0.239792,0.160209 -0.521667,0.245834 -0.81,0.245834 h -8.75 c -0.288374,0 -0.570271,-0.08563 -0.810042,-0.245834 -0.239771,-0.160208 -0.426645,-0.387916 -0.536978,-0.654375 -0.110355,-0.266458 -0.13925,-0.559791 -0.083,-0.8425 0.05625,-0.282916 0.195084,-0.542708 0.398979,-0.746666 l 1.1725,-1.1725 0.179375,-0.713125 h -3.2375 c -0.773541,0 -1.515416,-0.307292 -2.062395,-0.854167 -0.54698,-0.547083 -0.854271,-1.288958 -0.854271,-2.0625 z M 22.20771,26.916667 H 16.708335 V 16.708354 h 14.583334 v 10.208313 z"
     fill="#11111b"
     id="path4"
     style="stroke-width:2.08333;fill:#2a283e;fill-opacity:1" />
</svg>
