<?xml version="1.0" encoding="UTF-8" standalone="no"?>
<svg
   width="48"
   height="48"
   viewBox="0 0 48 48"
   version="1.1"
   id="svg23950"
   sodipodi:docname="user-cat-se-desktop.svg"
   inkscape:version="1.2.1 (9c6d41e410, 2022-07-14)"
   xmlns:inkscape="http://www.inkscape.org/namespaces/inkscape"
   xmlns:sodipodi="http://sodipodi.sourceforge.net/DTD/sodipodi-0.dtd"
   xmlns="http://www.w3.org/2000/svg"
   xmlns:svg="http://www.w3.org/2000/svg">
  <sodipodi:namedview
     id="namedview23952"
     pagecolor="#ffffff"
     bordercolor="#000000"
     borderopacity="0.25"
     inkscape:showpageshadow="2"
     inkscape:pageopacity="0.0"
     inkscape:pagecheckerboard="0"
     inkscape:deskcolor="#d1d1d1"
     showgrid="false"
     inkscape:zoom="21.395833"
     inkscape:cx="11.848101"
     inkscape:cy="24.093477"
     inkscape:window-width="2560"
     inkscape:window-height="1349"
     inkscape:window-x="-11"
     inkscape:window-y="-11"
     inkscape:window-maximized="1"
     inkscape:current-layer="svg23950" />
  <defs
     id="defs23916">
    <clipPath
       id="clip-0">
      <path
         clip-rule="nonzero"
         d="M 24 5 L 43 5 L 43 24 L 24 24 Z M 24 5 "
         id="path23886" />
    </clipPath>
    <clipPath
       id="clip-1">
      <path
         clip-rule="nonzero"
         d="M 24.75 5.25 L 38.25 5.25 C 40.726562 5.25 42.75 7.273438 42.75 9.75 L 42.75 23.25 L 30.75 23.25 C 27.449219 23.25 24.75 20.550781 24.75 17.25 Z M 24.75 5.25 "
         id="path23889" />
    </clipPath>
    <clipPath
       id="clip-2">
      <path
         clip-rule="nonzero"
         d="M 37 17 L 43 17 L 43 24 L 37 24 Z M 37 17 "
         id="path23892" />
    </clipPath>
    <clipPath
       id="clip-3">
      <path
         clip-rule="nonzero"
         d="M 24.75 5.25 L 38.25 5.25 C 40.726562 5.25 42.75 7.273438 42.75 9.75 L 42.75 23.25 L 30.75 23.25 C 27.449219 23.25 24.75 20.550781 24.75 17.25 Z M 24.75 5.25 "
         id="path23895" />
    </clipPath>
    <clipPath
       id="clip-4">
      <path
         clip-rule="nonzero"
         d="M 26 7 L 30 7 L 30 11 L 26 11 Z M 26 7 "
         id="path23898" />
    </clipPath>
    <clipPath
       id="clip-5">
      <path
         clip-rule="nonzero"
         d="M 24.75 5.25 L 38.25 5.25 C 40.726562 5.25 42.75 7.273438 42.75 9.75 L 42.75 23.25 L 30.75 23.25 C 27.449219 23.25 24.75 20.550781 24.75 17.25 Z M 24.75 5.25 "
         id="path23901" />
    </clipPath>
    <clipPath
       id="clip-6">
      <path
         clip-rule="nonzero"
         d="M 24 16 L 43 16 L 43 20 L 24 20 Z M 24 16 "
         id="path23904" />
    </clipPath>
    <clipPath
       id="clip-7">
      <path
         clip-rule="nonzero"
         d="M 24.75 5.25 L 38.25 5.25 C 40.726562 5.25 42.75 7.273438 42.75 9.75 L 42.75 23.25 L 30.75 23.25 C 27.449219 23.25 24.75 20.550781 24.75 17.25 Z M 24.75 5.25 "
         id="path23907" />
    </clipPath>
    <clipPath
       id="clip-8">
      <path
         clip-rule="nonzero"
         d="M 26 11 L 30 11 L 30 15 L 26 15 Z M 26 11 "
         id="path23910" />
    </clipPath>
    <clipPath
       id="clip-9">
      <path
         clip-rule="nonzero"
         d="M 24.75 5.25 L 38.25 5.25 C 40.726562 5.25 42.75 7.273438 42.75 9.75 L 42.75 23.25 L 30.75 23.25 C 27.449219 23.25 24.75 20.550781 24.75 17.25 Z M 24.75 5.25 "
         id="path23913" />
    </clipPath>
  </defs>
  <path
     fill-rule="nonzero"
     fill="#11111b"
     fill-opacity="1"
     d="m 9.75,5.25 h 28.5 c 2.476562,0 4.5,2.023438 4.5,4.5 v 28.5 c 0,2.476562 -2.023438,4.5 -4.5,4.5 H 9.75 c -2.476562,0 -4.5,-2.023438 -4.5,-4.5 V 9.75 c 0,-2.476562 2.023438,-4.5 4.5,-4.5 z m 0,0"
     id="path23918"
     style="fill:#2a283e;fill-opacity:1;stroke-width:1" />
  <g
     clip-path="url(#clip-0)"
     id="g23924"
     style="fill:#f6c177;fill-opacity:1">
    <g
       clip-path="url(#clip-1)"
       id="g23922"
       style="fill:#f6c177;fill-opacity:1">
      <path
         fill-rule="nonzero"
         fill="#f9e2af"
         fill-opacity="1"
         d="m 24.75,5.25 h 13.5 c 2.476562,0 4.5,2.023438 4.5,4.5 v 13.5 h -12 c -3.300781,0 -6,-2.699219 -6,-6 z m 0,0"
         id="path23920"
         style="fill:#f6c177;fill-opacity:1" />
    </g>
  </g>
  <g
     clip-path="url(#clip-4)"
     id="g23936"
     style="fill:#2a283e;fill-opacity:1">
    <g
       clip-path="url(#clip-5)"
       id="g23934"
       style="fill:#2a283e;fill-opacity:1">
      <path
         fill-rule="nonzero"
         fill="#11111b"
         fill-opacity="1"
         d="m 26.773438,7.199219 h 1.652343 c 0.375,0 0.675781,0.300781 0.675781,0.675781 v 1.648438 c 0,0.375 -0.300781,0.675781 -0.675781,0.675781 h -1.652343 c -0.375,0 -0.671876,-0.300781 -0.671876,-0.675781 V 7.875 c 0,-0.449219 0.296876,-0.675781 0.671876,-0.675781 z m 0,0"
         id="path23932"
         style="fill:#2a283e;fill-opacity:1" />
    </g>
  </g>
  <g
     clip-path="url(#clip-6)"
     id="g23942">
    <g
       clip-path="url(#clip-7)"
       id="g23940"
       style="fill:#2a283e;fill-opacity:1">
      <path
         fill-rule="nonzero"
         fill="#11111b"
         fill-opacity="1"
         d="m 23.476562,16.949219 v 2.851562 H 42.75 V 16.949219 Z M 39.300781,19.125 h -1.5 v -1.5 h 1.5 z m 2.773438,0 h -1.5 v -1.5 h 1.5 z m 0,0"
         id="path23938"
         style="fill:#2a283e;fill-opacity:1" />
    </g>
  </g>
  <g
     clip-path="url(#clip-8)"
     id="g23948"
     style="fill:#2a283e;fill-opacity:1">
    <g
       clip-path="url(#clip-9)"
       id="g23946"
       style="fill:#2a283e;fill-opacity:1">
      <path
         fill-rule="nonzero"
         fill="#11111b"
         fill-opacity="1"
         d="m 26.773438,11.476562 h 1.652343 c 0.375,0 0.675781,0.296876 0.675781,0.671876 v 1.652343 c 0,0.375 -0.300781,0.675781 -0.675781,0.675781 h -1.652343 c -0.375,0 -0.671876,-0.300781 -0.671876,-0.675781 v -1.652343 c 0,-0.449219 0.296876,-0.671876 0.671876,-0.671876 z m 0,0"
         id="path23944"
         style="fill:#2a283e;fill-opacity:1" />
    </g>
  </g>
</svg>
