<?xml version="1.0" encoding="UTF-8" standalone="no"?>
<!-- Generator: Adobe Illustrator 25.2.0, SVG Export Plug-In . SVG Version: 6.00 Build 0)  -->

<svg
   version="1.1"
   id="Layer_1"
   x="0px"
   y="0px"
   viewBox="0 0 24 24"
   style="enable-background:new 0 0 24 24;"
   xml:space="preserve"
   sodipodi:docname="desktop.svg"
   inkscape:version="1.2.1 (9c6d41e410, 2022-07-14)"
   xmlns:inkscape="http://www.inkscape.org/namespaces/inkscape"
   xmlns:sodipodi="http://sodipodi.sourceforge.net/DTD/sodipodi-0.dtd"
   xmlns="http://www.w3.org/2000/svg"
   xmlns:svg="http://www.w3.org/2000/svg"><defs
   id="defs17" /><sodipodi:namedview
   id="namedview15"
   pagecolor="#ffffff"
   bordercolor="#000000"
   borderopacity="0.25"
   inkscape:showpageshadow="2"
   inkscape:pageopacity="0.0"
   inkscape:pagecheckerboard="0"
   inkscape:deskcolor="#d1d1d1"
   showgrid="false"
   inkscape:zoom="42.791667"
   inkscape:cx="9.9902629"
   inkscape:cy="12"
   inkscape:window-width="2560"
   inkscape:window-height="1349"
   inkscape:window-x="-11"
   inkscape:window-y="-11"
   inkscape:window-maximized="1"
   inkscape:current-layer="g12" />
<style
   type="text/css"
   id="style2">
	.st0{fill:#f9e2af;}
	.st1{fill:#11111b;}
</style>
<g
   id="g12">
	<path
   class="st0"
   d="M6.9,3h10.3C19.3,3,21,4.7,21,6.9v10.3c0,2.2-1.7,3.9-3.9,3.9H6.9C4.7,21,3,19.3,3,17.1V6.9C3,4.7,4.7,3,6.9,3   z"
   id="path4"
   style="fill:#f6c177;fill-opacity:1" />
	<path
   class="st1"
   d="M6.1,5.3h1.5C8,5.3,8.3,5.6,8.3,6v1.5c0,0.4-0.3,0.6-0.6,0.6H6.1c-0.4,0-0.6-0.3-0.6-0.6V6   C5.4,5.6,5.7,5.3,6.1,5.3z"
   id="path6"
   style="fill:#2a283e;fill-opacity:1" />
	<path
   class="st1"
   d="M3,14.4v2.7h18v-2.7H3z M17.8,16.5h-1.4v-1.4h1.4V16.5z M20.4,16.5h-1.4v-1.4h1.4V16.5z"
   id="path8"
   style="fill:#2a283e;fill-opacity:1" />
	<path
   class="st1"
   d="M6.1,9.3h1.5c0.4,0,0.6,0.3,0.6,0.6v1.5c0,0.4-0.3,0.6-0.6,0.6H6.1c-0.4,0-0.6-0.3-0.6-0.6V9.9   C5.4,9.6,5.7,9.3,6.1,9.3z"
   id="path10"
   style="fill:#2a283e;fill-opacity:1" />
</g>
</svg>
