<?xml version="1.0" encoding="UTF-8" standalone="no"?>
<svg
   width="24"
   height="24"
   viewBox="0 0 24 24"
   fill="none"
   version="1.1"
   id="svg6"
   sodipodi:docname="downloads.svg"
   inkscape:version="1.2.1 (9c6d41e410, 2022-07-14)"
   xmlns:inkscape="http://www.inkscape.org/namespaces/inkscape"
   xmlns:sodipodi="http://sodipodi.sourceforge.net/DTD/sodipodi-0.dtd"
   xmlns="http://www.w3.org/2000/svg"
   xmlns:svg="http://www.w3.org/2000/svg">
  <defs
     id="defs10" />
  <sodipodi:namedview
     id="namedview8"
     pagecolor="#ffffff"
     bordercolor="#000000"
     borderopacity="0.25"
     inkscape:showpageshadow="2"
     inkscape:pageopacity="0.0"
     inkscape:pagecheckerboard="0"
     inkscape:deskcolor="#d1d1d1"
     showgrid="false"
     inkscape:zoom="42.791667"
     inkscape:cx="9.9902629"
     inkscape:cy="12"
     inkscape:window-width="2560"
     inkscape:window-height="1349"
     inkscape:window-x="-11"
     inkscape:window-y="-11"
     inkscape:window-maximized="1"
     inkscape:current-layer="svg6" />
  <rect
     x="3"
     y="3"
     width="18"
     height="18"
     rx="3"
     fill="#89dceb"
     id="rect2"
     style="fill:#9ccfd8;fill-opacity:1" />
  <path
     fill-rule="evenodd"
     clip-rule="evenodd"
     d="M6.40002 11.65C6.40002 12.2998 6.65815 12.9229 7.11761 13.3824C7.57708 13.8419 8.20024 14.1 8.85002 14.1H11.3V15.9102L10.3949 15.0051C10.2629 14.8776 10.0861 14.807 9.90254 14.8086C9.71901 14.8102 9.54344 14.8838 9.41365 15.0136C9.28387 15.1434 9.21025 15.319 9.20865 15.5025C9.20706 15.6861 9.27761 15.8629 9.40512 15.9949L11.5051 18.0949C11.6364 18.2261 11.8144 18.2998 12 18.2998C12.1856 18.2998 12.3637 18.2261 12.4949 18.0949L14.5949 15.9949C14.7224 15.8629 14.793 15.6861 14.7914 15.5025C14.7898 15.319 14.7162 15.1434 14.5864 15.0136C14.4566 14.8838 14.281 14.8102 14.0975 14.8086C13.914 14.807 13.7371 14.8776 13.6051 15.0051L12.7 15.9102V14.1H14.45C14.8817 14.0997 15.3088 14.0108 15.7047 13.8386C16.1006 13.6663 16.4568 13.4146 16.7513 13.099C17.0459 12.7833 17.2723 12.4105 17.4167 12.0036C17.5612 11.5968 17.6204 11.1646 17.5908 10.7339C17.5611 10.3032 17.4433 9.88319 17.2446 9.49994C17.0458 9.11669 16.7705 8.77838 16.4355 8.50601C16.1005 8.23365 15.7132 8.03304 15.2975 7.91664C14.8817 7.80025 14.4465 7.77055 14.0188 7.8294C13.9362 7.46441 13.7812 7.11968 13.5631 6.81557C13.345 6.51146 13.0682 6.25414 12.749 6.05879C12.4297 5.86344 12.0746 5.73402 11.7046 5.67819C11.3345 5.62235 10.9571 5.64123 10.5944 5.7337C10.2318 5.82617 9.89137 5.99036 9.59324 6.21658C9.29512 6.4428 9.04534 6.72645 8.85866 7.0508C8.67198 7.37515 8.55218 7.73362 8.50633 8.10504C8.46048 8.47645 8.48952 8.85329 8.59172 9.2133C7.98998 9.2771 7.43313 9.56133 7.02846 10.0112C6.62379 10.4611 6.39994 11.0449 6.40002 11.65V11.65ZM12.7 14.1H11.3V10.6C11.3 10.4143 11.3738 10.2363 11.505 10.105C11.6363 9.97375 11.8144 9.9 12 9.9C12.1857 9.9 12.3637 9.97375 12.495 10.105C12.6263 10.2363 12.7 10.4143 12.7 10.6V14.1Z"
     fill="#11111b"
     id="path4"
     style="fill:#2a283e;fill-opacity:1" />
</svg>
