<?xml version="1.0" encoding="UTF-8" standalone="no"?>
<svg
   width="48"
   height="48"
   viewBox="0 0 48 48"
   fill="none"
   version="1.1"
   id="svg11697"
   sodipodi:docname="folder-cat-se-download.svg"
   inkscape:version="1.2.1 (9c6d41e410, 2022-07-14)"
   xmlns:inkscape="http://www.inkscape.org/namespaces/inkscape"
   xmlns:sodipodi="http://sodipodi.sourceforge.net/DTD/sodipodi-0.dtd"
   xmlns="http://www.w3.org/2000/svg"
   xmlns:svg="http://www.w3.org/2000/svg">
  <sodipodi:namedview
     id="namedview11699"
     pagecolor="#ffffff"
     bordercolor="#000000"
     borderopacity="0.25"
     inkscape:showpageshadow="2"
     inkscape:pageopacity="0.0"
     inkscape:pagecheckerboard="0"
     inkscape:deskcolor="#d1d1d1"
     showgrid="false"
     inkscape:zoom="21.395833"
     inkscape:cx="16.00779"
     inkscape:cy="24.046738"
     inkscape:window-width="2560"
     inkscape:window-height="1349"
     inkscape:window-x="-11"
     inkscape:window-y="-11"
     inkscape:window-maximized="1"
     inkscape:current-layer="svg11697" />
  <rect
     x="5.2499995"
     y="5.25"
     width="37.5"
     height="37.5"
     rx="5.3571429"
     fill="#11111b"
     id="rect11663"
     style="fill:#2a283e;fill-opacity:1;stroke-width:1.07143" />
  <g
     clip-path="url(#clip0)"
     id="g11673"
     transform="matrix(1.0714286,0,0,1.0714286,-2.2500006,-1.1785714)">
    <path
       d="M 25.2,6 H 37 c 2.7614,0 5,2.23858 5,5 V 22.8 H 31.2 c -3.3137,0 -6,-2.6863 -6,-6 z"
       fill="#89dceb"
       id="path11665"
       style="fill:#9ccfd8;fill-opacity:1" />
    <path
       fill-rule="evenodd"
       clip-rule="evenodd"
       d="m 29.2,13.7 c 0,0.557 0.2213,1.0911 0.6151,1.4849 0.3938,0.3939 0.928,0.6151 1.4849,0.6151 h 2.1 v 1.5516 l -0.7758,-0.7758 c -0.1131,-0.1093 -0.2647,-0.1698 -0.422,-0.1684 -0.1573,0.0014 -0.3078,0.0645 -0.4191,0.1757 -0.1112,0.1113 -0.1743,0.2617 -0.1757,0.4191 -0.0014,0.1573 0.0591,0.3088 0.1684,0.422 l 1.8,1.8 c 0.1125,0.1125 0.2651,0.1757 0.4242,0.1757 0.1591,0 0.3117,-0.0632 0.4242,-0.1757 l 1.8,-1.8 c 0.1093,-0.1132 0.1698,-0.2647 0.1684,-0.422 -0.0014,-0.1574 -0.0645,-0.3078 -0.1757,-0.4191 -0.1112,-0.1112 -0.2617,-0.1743 -0.419,-0.1757 -0.1574,-0.0014 -0.3089,0.0591 -0.4221,0.1684 L 34.6,17.3516 V 15.8 h 1.5 c 0.3701,-2e-4 0.7361,-0.0765 1.0754,-0.2241 0.3394,-0.1476 0.6447,-0.3634 0.8972,-0.6339 0.2524,-0.2706 0.4465,-0.5902 0.5703,-0.9389 0.1238,-0.3487 0.1746,-0.7192 0.1492,-1.0883 C 38.7667,12.5456 38.6657,12.1856 38.4953,11.8571 38.325,11.5286 38.089,11.2386 37.8018,11.0052 37.5147,10.7717 37.1827,10.5997 36.8264,10.5 36.47,10.4002 36.097,10.3748 35.7304,10.4252 35.6596,10.1124 35.5267,9.81687 35.3398,9.5562 35.1528,9.29554 34.9156,9.07497 34.6419,8.90753 34.3683,8.74009 34.064,8.62916 33.7468,8.5813 33.4296,8.53345 33.106,8.54962 32.7952,8.62888 c -0.3108,0.07927 -0.6026,0.22 -0.8581,0.4139 -0.2556,0.1939 -0.4697,0.43704 -0.6297,0.71505 -0.16,0.27797 -0.2627,0.58527 -0.302,0.90367 -0.0393,0.3183 -0.0144,0.6413 0.0732,0.9499 -0.5158,0.0547 -0.9931,0.2983 -1.3399,0.6839 C 29.3918,12.681 29.1999,13.1813 29.2,13.7 Z m 5.4,2.1 h -1.2 v -3 c 0,-0.1591 0.0632,-0.3117 0.1757,-0.4243 C 33.6883,12.2632 33.8409,12.2 34,12.2 c 0.1591,0 0.3118,0.0632 0.4243,0.1757 C 34.5368,12.4883 34.6,12.6409 34.6,12.8 Z"
       fill="#11111b"
       id="path11671"
       style="fill:#2a283e;fill-opacity:1" />
  </g>
  <defs
     id="defs11695">
    <filter
       id="filter0_d"
       x="21.1"
       y="5.2"
       width="42.5"
       height="42.5"
       filterUnits="userSpaceOnUse"
       color-interpolation-filters="sRGB">
      <feFlood
         flood-opacity="0"
         result="BackgroundImageFix"
         id="feFlood11675" />
      <feColorMatrix
         in="SourceAlpha"
         type="matrix"
         values="0 0 0 0 0 0 0 0 0 0 0 0 0 0 0 0 0 0 127 0"
         result="hardAlpha"
         id="feColorMatrix11677" />
      <feOffset
         dy="4"
         id="feOffset11679" />
      <feGaussianBlur
         stdDeviation="8"
         id="feGaussianBlur11681" />
      <feComposite
         in2="hardAlpha"
         operator="out"
         id="feComposite11683" />
      <feColorMatrix
         type="matrix"
         values="0 0 0 0 0 0 0 0 0 0 0 0 0 0 0 0 0 0 0.3 0"
         id="feColorMatrix11685" />
      <feBlend
         mode="normal"
         in2="BackgroundImageFix"
         result="effect1_dropShadow"
         id="feBlend11687" />
      <feBlend
         mode="normal"
         in="SourceGraphic"
         in2="effect1_dropShadow"
         result="shape"
         id="feBlend11689" />
    </filter>
    <clipPath
       id="clip0">
      <path
         d="M25.2 6H37C39.7614 6 42 8.23858 42 11V22.8H31.2C27.8863 22.8 25.2 20.1137 25.2 16.8V6Z"
         fill="white"
         id="path11692" />
    </clipPath>
  </defs>
</svg>
