<?xml version="1.0" encoding="UTF-8" standalone="no"?>
<!-- Generator: Adobe Illustrator 25.2.0, SVG Export Plug-In . SVG Version: 6.00 Build 0)  -->

<svg
   version="1.1"
   id="Layer_1"
   x="0px"
   y="0px"
   viewBox="0 0 24 24"
   style="enable-background:new 0 0 24 24;"
   xml:space="preserve"
   sodipodi:docname="folder.svg"
   inkscape:version="1.2.1 (9c6d41e410, 2022-07-14)"
   xmlns:inkscape="http://www.inkscape.org/namespaces/inkscape"
   xmlns:sodipodi="http://sodipodi.sourceforge.net/DTD/sodipodi-0.dtd"
   xmlns="http://www.w3.org/2000/svg"
   xmlns:svg="http://www.w3.org/2000/svg"><defs
   id="defs13" /><sodipodi:namedview
   id="namedview11"
   pagecolor="#ffffff"
   bordercolor="#000000"
   borderopacity="0.25"
   inkscape:showpageshadow="2"
   inkscape:pageopacity="0.0"
   inkscape:pagecheckerboard="0"
   inkscape:deskcolor="#d1d1d1"
   showgrid="false"
   inkscape:zoom="42.791667"
   inkscape:cx="9.9902629"
   inkscape:cy="12"
   inkscape:window-width="2560"
   inkscape:window-height="1349"
   inkscape:window-x="-11"
   inkscape:window-y="-11"
   inkscape:window-maximized="1"
   inkscape:current-layer="g8" />
<style
   type="text/css"
   id="style2">
	.st0{fill:#89b4fa;enable-background:new    ;}
	.st1{fill:#11111b;}
</style>
<g
   id="g8">
	<path
   class="st0"
   d="M6,3h12c1.7,0,3,1.3,3,3v12c0,1.7-1.3,3-3,3H6c-1.7,0-3-1.3-3-3V6C3,4.3,4.3,3,6,3z"
   id="path4"
   style="fill:#ebbcba;fill-opacity:1" />
	<path
   class="st1"
   d="M6.6,9.3c0-0.4,0.1-0.7,0.4-1C7.3,8.1,7.6,8,8,8h3.4l1.3,1.3H16c0.4,0,0.7,0.1,0.9,0.4   c0.3,0.3,0.4,0.6,0.4,0.9v4c0,0.4-0.1,0.7-0.4,1C16.7,15.9,16.4,16,16,16H8c-0.4,0-0.7-0.1-0.9-0.4c-0.3-0.3-0.4-0.6-0.4-1V9.3z"
   id="path6"
   style="fill:#2a283e;fill-opacity:1" />
</g>
</svg>
