<?xml version="1.0" encoding="UTF-8" standalone="no"?>
<svg
   width="48"
   height="48"
   viewBox="0 0 48 48"
   version="1.1"
   id="svg58176"
   sodipodi:docname="games folder.svg"
   inkscape:version="1.2.1 (9c6d41e410, 2022-07-14)"
   xmlns:inkscape="http://www.inkscape.org/namespaces/inkscape"
   xmlns:sodipodi="http://sodipodi.sourceforge.net/DTD/sodipodi-0.dtd"
   xmlns="http://www.w3.org/2000/svg"
   xmlns:svg="http://www.w3.org/2000/svg">
  <sodipodi:namedview
     id="namedview58178"
     pagecolor="#ffffff"
     bordercolor="#000000"
     borderopacity="0.25"
     inkscape:showpageshadow="2"
     inkscape:pageopacity="0.0"
     inkscape:pagecheckerboard="0"
     inkscape:deskcolor="#d1d1d1"
     showgrid="false"
     inkscape:zoom="21.395833"
     inkscape:cx="16.00779"
     inkscape:cy="24.046738"
     inkscape:window-width="2560"
     inkscape:window-height="1349"
     inkscape:window-x="-11"
     inkscape:window-y="-11"
     inkscape:window-maximized="1"
     inkscape:current-layer="svg58176" />
  <defs
     id="defs58154">
    <clipPath
       id="clip-0">
      <path
         clip-rule="nonzero"
         d="M 24 5 L 43 5 L 43 24 L 24 24 Z M 24 5 "
         id="path58136" />
    </clipPath>
    <clipPath
       id="clip-1">
      <path
         clip-rule="nonzero"
         d="M 24.75 5.25 L 38.25 5.25 C 40.726562 5.25 42.75 7.273438 42.75 9.75 L 42.75 23.25 L 30.75 23.25 C 27.449219 23.25 24.75 20.550781 24.75 17.25 Z M 24.75 5.25 "
         id="path58139" />
    </clipPath>
    <clipPath
       id="clip-2">
      <path
         clip-rule="nonzero"
         d="M 37 17 L 43 17 L 43 24 L 37 24 Z M 37 17 "
         id="path58142" />
    </clipPath>
    <clipPath
       id="clip-3">
      <path
         clip-rule="nonzero"
         d="M 24.75 5.25 L 38.25 5.25 C 40.726562 5.25 42.75 7.273438 42.75 9.75 L 42.75 23.25 L 30.75 23.25 C 27.449219 23.25 24.75 20.550781 24.75 17.25 Z M 24.75 5.25 "
         id="path58145" />
    </clipPath>
    <clipPath
       id="clip-4">
      <path
         clip-rule="nonzero"
         d="M 28 8 L 41 8 L 41 19 L 28 19 Z M 28 8 "
         id="path58148" />
    </clipPath>
    <clipPath
       id="clip-5">
      <path
         clip-rule="nonzero"
         d="M 24.75 5.25 L 38.25 5.25 C 40.726562 5.25 42.75 7.273438 42.75 9.75 L 42.75 23.25 L 30.75 23.25 C 27.449219 23.25 24.75 20.550781 24.75 17.25 Z M 24.75 5.25 "
         id="path58151" />
    </clipPath>
  </defs>
  <path
     fill-rule="nonzero"
     fill="#11111b"
     fill-opacity="1"
     d="M 9.75 5.25 L 38.25 5.25 C 40.726562 5.25 42.75 7.273438 42.75 9.75 L 42.75 38.25 C 42.75 40.726562 40.726562 42.75 38.25 42.75 L 9.75 42.75 C 7.273438 42.75 5.25 40.726562 5.25 38.25 L 5.25 9.75 C 5.25 7.273438 7.273438 5.25 9.75 5.25 Z M 9.75 5.25 "
     id="path58156"
     style="fill:#2a283e;fill-opacity:1" />
  <g
     clip-path="url(#clip-0)"
     id="g58162"
     style="fill:#3e8fb0;fill-opacity:1">
    <g
       clip-path="url(#clip-1)"
       id="g58160"
       style="fill:#3e8fb0;fill-opacity:1">
      <path
         fill-rule="nonzero"
         fill="#b4befe"
         fill-opacity="1"
         d="M 24.75 5.25 L 38.25 5.25 C 40.726562 5.25 42.75 7.273438 42.75 9.75 L 42.75 23.25 L 30.75 23.25 C 27.449219 23.25 24.75 20.550781 24.75 17.25 Z M 24.75 5.25 "
         id="path58158"
         style="fill:#3e8fb0;fill-opacity:1" />
    </g>
  </g>
  <g
     clip-path="url(#clip-4)"
     id="g58174"
     style="fill:#2a283e;fill-opacity:1">
    <g
       clip-path="url(#clip-5)"
       id="g58172"
       style="fill:#2a283e;fill-opacity:1">
      <path
         fill-rule="nonzero"
         fill="#11111b"
         fill-opacity="1"
         d="M 31.125 8.699219 C 30.976562 8.699219 30.75 8.773438 30.523438 8.851562 C 29.699219 9.300781 28.949219 10.800781 28.574219 12.675781 C 28.199219 14.324219 28.125 16.5 28.273438 17.398438 C 28.425781 18.148438 28.726562 18.523438 29.324219 18.523438 C 30.148438 18.523438 31.125 17.550781 31.800781 16.273438 C 32.25 15.523438 33.375 15.226562 34.351562 15.300781 C 35.398438 15.226562 36.449219 15.601562 36.898438 16.273438 C 37.574219 17.550781 38.550781 18.523438 39.375 18.523438 C 39.898438 18.523438 40.199219 18.148438 40.425781 17.398438 C 40.648438 16.5 40.5 14.25 40.125 12.675781 C 39.75 10.726562 39 9.300781 38.175781 8.851562 C 37.949219 8.699219 37.726562 8.699219 37.574219 8.699219 C 37.425781 8.699219 37.199219 8.773438 37.050781 8.851562 C 36.675781 9.148438 35.773438 9.523438 34.273438 9.523438 C 32.773438 9.523438 31.949219 9.226562 31.5 8.851562 C 31.425781 8.773438 31.273438 8.699219 31.125 8.699219 Z M 31.273438 10.574219 L 32.476562 10.574219 L 32.476562 11.773438 L 33.75 11.773438 L 33.75 12.976562 L 32.550781 12.976562 L 32.550781 14.25 L 31.351562 14.25 L 31.351562 13.050781 L 30.148438 13.050781 L 30.148438 11.851562 L 31.351562 11.851562 L 31.351562 10.574219 Z M 36.824219 10.574219 C 37.199219 10.574219 37.425781 10.875 37.425781 11.175781 C 37.425781 11.550781 37.125 11.773438 36.824219 11.773438 C 36.449219 11.773438 36.226562 11.476562 36.226562 11.175781 C 36.226562 10.800781 36.523438 10.574219 36.824219 10.574219 Z M 35.625 11.773438 C 36 11.773438 36.226562 12.074219 36.226562 12.375 C 36.226562 12.675781 35.925781 12.976562 35.625 12.976562 C 35.25 12.976562 35.023438 12.675781 35.023438 12.375 C 35.023438 12.074219 35.25 11.773438 35.625 11.773438 Z M 38.101562 11.773438 C 38.476562 11.773438 38.699219 12.074219 38.699219 12.375 C 38.699219 12.675781 38.398438 12.976562 38.101562 12.976562 C 37.800781 12.976562 37.5 12.675781 37.5 12.375 C 37.5 12.074219 37.726562 11.773438 38.101562 11.773438 Z M 36.824219 13.050781 C 37.199219 13.050781 37.425781 13.351562 37.425781 13.648438 C 37.425781 13.949219 37.199219 14.25 36.824219 14.25 C 36.449219 14.25 36.226562 13.949219 36.226562 13.648438 C 36.226562 13.351562 36.523438 13.050781 36.824219 13.050781 Z M 36.824219 13.050781 "
         id="path58170"
         style="fill:#2a283e;fill-opacity:1" />
    </g>
  </g>
</svg>
