<?xml version="1.0" encoding="UTF-8" standalone="no"?>
<svg
   width="48"
   height="48"
   viewBox="0 0 48 48"
   fill="none"
   version="1.1"
   id="svg14840"
   sodipodi:docname="folder-cat-se-music.svg"
   inkscape:version="1.2.1 (9c6d41e410, 2022-07-14)"
   xmlns:inkscape="http://www.inkscape.org/namespaces/inkscape"
   xmlns:sodipodi="http://sodipodi.sourceforge.net/DTD/sodipodi-0.dtd"
   xmlns="http://www.w3.org/2000/svg"
   xmlns:svg="http://www.w3.org/2000/svg">
  <sodipodi:namedview
     id="namedview14842"
     pagecolor="#ffffff"
     bordercolor="#000000"
     borderopacity="0.25"
     inkscape:showpageshadow="2"
     inkscape:pageopacity="0.0"
     inkscape:pagecheckerboard="0"
     inkscape:deskcolor="#d1d1d1"
     showgrid="false"
     inkscape:zoom="21.395833"
     inkscape:cx="16.00779"
     inkscape:cy="24.046738"
     inkscape:window-width="2560"
     inkscape:window-height="1349"
     inkscape:window-x="-11"
     inkscape:window-y="-11"
     inkscape:window-maximized="1"
     inkscape:current-layer="svg14840" />
  <rect
     x="5.2499995"
     y="5.25"
     width="37.5"
     height="37.5"
     rx="5.3571429"
     fill="#11111b"
     id="rect14806"
     style="fill:#2a283e;fill-opacity:1;stroke-width:1.07143" />
  <g
     clip-path="url(#clip0_37_394)"
     id="g14816"
     transform="matrix(1.0714286,0,0,1.0714286,-2.2500006,-1.1785714)">
    <path
       d="M 25.2,6 H 36.9999 C 39.7614,6 42,8.23858 42,11 V 22.8 H 31.2 c -3.3138,0 -6,-2.6863 -6,-6 z"
       fill="#cba6f7"
       id="path14808"
       style="fill:#c4a7e7;fill-opacity:1" />
    <path
       d="M 38.8,9.8 C 38.7999,9.71127 38.7802,9.62365 38.7422,9.54346 38.7042,9.46327 38.6489,9.3925 38.5802,9.33626 38.5116,9.28002 38.4313,9.23971 38.3452,9.21822 38.2592,9.19673 38.1694,9.19461 38.0824,9.212 l -6,1.2 c -0.136,0.0272 -0.2584,0.1006 -0.3463,0.2078 C 31.6481,10.727 31.6,10.8613 31.6,11 v 5.4684 C 31.4033,16.4226 31.2019,16.3996 31,16.4 c -0.9942,0 -1.8,0.537 -1.8,1.2 0,0.663 0.8058,1.2 1.8,1.2 0.9942,0 1.8,-0.537 1.8,-1.2 v -4.908 l 4.8,-0.96 v 3.5364 C 37.4033,15.2226 37.2019,15.1996 37,15.2 c -0.9942,0 -1.8,0.537 -1.8,1.2 0,0.663 0.8058,1.2 1.8,1.2 0.9942,0 1.8,-0.537 1.8,-1.2 z"
       fill="#11111b"
       id="path14814"
       style="fill:#2a283e;fill-opacity:1" />
  </g>
  <defs
     id="defs14838">
    <filter
       id="filter0_d_37_394"
       x="21.1"
       y="5.2"
       width="42.5"
       height="42.5"
       filterUnits="userSpaceOnUse"
       color-interpolation-filters="sRGB">
      <feFlood
         flood-opacity="0"
         result="BackgroundImageFix"
         id="feFlood14818" />
      <feColorMatrix
         in="SourceAlpha"
         type="matrix"
         values="0 0 0 0 0 0 0 0 0 0 0 0 0 0 0 0 0 0 127 0"
         result="hardAlpha"
         id="feColorMatrix14820" />
      <feOffset
         dy="4"
         id="feOffset14822" />
      <feGaussianBlur
         stdDeviation="8"
         id="feGaussianBlur14824" />
      <feComposite
         in2="hardAlpha"
         operator="out"
         id="feComposite14826" />
      <feColorMatrix
         type="matrix"
         values="0 0 0 0 0 0 0 0 0 0 0 0 0 0 0 0 0 0 0.3 0"
         id="feColorMatrix14828" />
      <feBlend
         mode="normal"
         in2="BackgroundImageFix"
         result="effect1_dropShadow_37_394"
         id="feBlend14830" />
      <feBlend
         mode="normal"
         in="SourceGraphic"
         in2="effect1_dropShadow_37_394"
         result="shape"
         id="feBlend14832" />
    </filter>
    <clipPath
       id="clip0_37_394">
      <path
         d="M25.2 6H36.9999C39.7614 6 42 8.23858 42 11V22.8H31.2C27.8862 22.8 25.2 20.1137 25.2 16.8V6Z"
         fill="white"
         id="path14835" />
    </clipPath>
  </defs>
</svg>
