<?xml version="1.0" encoding="UTF-8" standalone="no"?>
<svg
   width="24"
   height="24"
   viewBox="0 0 24 24"
   fill="none"
   version="1.1"
   id="svg6"
   sodipodi:docname="music.svg"
   inkscape:version="1.2.1 (9c6d41e410, 2022-07-14)"
   xmlns:inkscape="http://www.inkscape.org/namespaces/inkscape"
   xmlns:sodipodi="http://sodipodi.sourceforge.net/DTD/sodipodi-0.dtd"
   xmlns="http://www.w3.org/2000/svg"
   xmlns:svg="http://www.w3.org/2000/svg">
  <defs
     id="defs10" />
  <sodipodi:namedview
     id="namedview8"
     pagecolor="#ffffff"
     bordercolor="#000000"
     borderopacity="0.25"
     inkscape:showpageshadow="2"
     inkscape:pageopacity="0.0"
     inkscape:pagecheckerboard="0"
     inkscape:deskcolor="#d1d1d1"
     showgrid="false"
     inkscape:zoom="42.791667"
     inkscape:cx="9.9902629"
     inkscape:cy="12"
     inkscape:window-width="2560"
     inkscape:window-height="1349"
     inkscape:window-x="-11"
     inkscape:window-y="-11"
     inkscape:window-maximized="1"
     inkscape:current-layer="svg6" />
  <rect
     x="3"
     y="3"
     width="18"
     height="18"
     rx="3"
     fill="#cba6f7"
     id="rect2"
     style="fill:#c4a7e7;fill-opacity:1" />
  <path
     d="M17.6 7.1C17.6 6.99648 17.5769 6.89426 17.5326 6.8007C17.4883 6.70715 17.4238 6.62459 17.3437 6.55898C17.2636 6.49336 17.17 6.44633 17.0695 6.42126C16.9691 6.39619 16.8643 6.39371 16.7628 6.414L9.76282 7.814C9.6042 7.84571 9.46145 7.93137 9.35884 8.05643C9.25624 8.1815 9.20012 8.33824 9.20002 8.5V14.8798C8.97054 14.8263 8.73565 14.7995 8.50002 14.8C7.34012 14.8 6.40002 15.4265 6.40002 16.2C6.40002 16.9735 7.34012 17.6 8.50002 17.6C9.65992 17.6 10.6 16.9735 10.6 16.2V10.474L16.2 9.354V13.4798C15.9705 13.4263 15.7357 13.3996 15.5 13.4C14.3401 13.4 13.4 14.0265 13.4 14.8C13.4 15.5735 14.3401 16.2 15.5 16.2C16.6599 16.2 17.6 15.5735 17.6 14.8V7.1Z"
     fill="#11111b"
     id="path4"
     style="fill:#2a283e;fill-opacity:1" />
</svg>
