<?xml version="1.0" encoding="UTF-8" standalone="no"?>
<!-- Generator: Adobe Illustrator 25.2.0, SVG Export Plug-In . SVG Version: 6.00 Build 0)  -->

<svg
   version="1.1"
   id="Layer_1"
   x="0px"
   y="0px"
   viewBox="0 0 24 24"
   style="enable-background:new 0 0 24 24;"
   xml:space="preserve"
   sodipodi:docname="network.svg"
   inkscape:version="1.2.1 (9c6d41e410, 2022-07-14)"
   xmlns:inkscape="http://www.inkscape.org/namespaces/inkscape"
   xmlns:sodipodi="http://sodipodi.sourceforge.net/DTD/sodipodi-0.dtd"
   xmlns="http://www.w3.org/2000/svg"
   xmlns:svg="http://www.w3.org/2000/svg"><defs
   id="defs13" /><sodipodi:namedview
   id="namedview11"
   pagecolor="#ffffff"
   bordercolor="#000000"
   borderopacity="0.25"
   inkscape:showpageshadow="2"
   inkscape:pageopacity="0.0"
   inkscape:pagecheckerboard="0"
   inkscape:deskcolor="#d1d1d1"
   showgrid="false"
   inkscape:zoom="42.791667"
   inkscape:cx="9.9902629"
   inkscape:cy="12"
   inkscape:window-width="2560"
   inkscape:window-height="1349"
   inkscape:window-x="-11"
   inkscape:window-y="-11"
   inkscape:window-maximized="1"
   inkscape:current-layer="g8" />
<style
   type="text/css"
   id="style2">
	.st0{fill:#b4befe;enable-background:new    ;}
	.st1{fill:#11111b;}
</style>
<g
   id="g8">
	<path
   class="st0"
   d="M6,3h12c1.7,0,3,1.3,3,3v12c0,1.7-1.3,3-3,3H6c-1.7,0-3-1.3-3-3V6C3,4.3,4.3,3,6,3z"
   id="path4"
   style="fill:#ea9a97;fill-opacity:1" />
	<path
   class="st1"
   d="M12,5.7c-3.5,0-6.2,2.8-6.2,6.3s2.8,6.3,6.2,6.3c3.5,0,6.3-2.8,6.3-6.3S15.5,5.7,12,5.7z M11.6,7.5   c0.1,0,0.2,0,0.2,0c0,0-0.1,0.1-0.1,0.3c-0.5,1-0.5,2-0.1,2.6c0.1,0.1,0.1,0.2,0.1,0.2s-0.1,0-0.1,0c-0.2,0-0.4-0.1-0.8-0.4   c-0.1-0.2-0.4-0.2-0.5-0.3c-0.1,0-0.1,0-0.4,0.1c-0.1,0.2-0.2,0.2-0.2,0.5c0,0.6,0.7,1.1,2,1.4c1.8,0.4,2.2,0.7,2.3,1.7   c0.1,1.2-0.5,2-2,2.7c-0.1,0.1-0.3,0.1-0.3,0.1h-0.1c0,0,0-0.1,0-0.3c0-0.6-0.2-1.3-0.6-1.7c-0.1-0.1-0.4-0.3-0.6-0.4   c-0.2-0.2-0.4-0.3-0.5-0.4c-0.1-0.2-0.1-0.2,0-0.5c0.1-0.4,0.3-0.6,0.5-0.9c0.2-0.1,0.3-0.2,0.3-0.2s-0.2-0.1-0.5-0.1   c-0.3-0.1-0.8-0.2-1.1-0.3c-0.4-0.1-1.1-0.5-1.4-0.8c0.4-1.4,1.3-2.5,2.6-3c0.3-0.1,0.5-0.2,0.8-0.2C11.3,7.5,11.5,7.5,11.6,7.5z    M15.8,9.6c0.1,0.1,0.5,0.9,0.6,1.4c0.1,0.5,0.1,1.5,0,2c-0.1,0.2-0.1,0.4-0.1,0.4c0,0-0.1-0.1-0.2-0.3c-0.1-0.1-0.4-0.5-0.7-0.8   c-0.8-0.8-0.8-1.1-0.5-1.7C15,10.2,15.7,9.5,15.8,9.6z"
   id="path6"
   style="fill:#2a283e;fill-opacity:1" />
</g>
</svg>
