<?xml version="1.0" encoding="UTF-8" standalone="no"?>
<svg
   width="48"
   height="48"
   viewBox="0 0 48 48"
   version="1.1"
   id="svg38896"
   sodipodi:docname="folder-cat-se-recent.svg"
   inkscape:version="1.2.1 (9c6d41e410, 2022-07-14)"
   xmlns:inkscape="http://www.inkscape.org/namespaces/inkscape"
   xmlns:sodipodi="http://sodipodi.sourceforge.net/DTD/sodipodi-0.dtd"
   xmlns="http://www.w3.org/2000/svg"
   xmlns:svg="http://www.w3.org/2000/svg">
  <sodipodi:namedview
     id="namedview38898"
     pagecolor="#ffffff"
     bordercolor="#000000"
     borderopacity="0.25"
     inkscape:showpageshadow="2"
     inkscape:pageopacity="0.0"
     inkscape:pagecheckerboard="0"
     inkscape:deskcolor="#d1d1d1"
     showgrid="false"
     inkscape:zoom="21.395833"
     inkscape:cx="19.980526"
     inkscape:cy="24"
     inkscape:window-width="2560"
     inkscape:window-height="1349"
     inkscape:window-x="-11"
     inkscape:window-y="-11"
     inkscape:window-maximized="1"
     inkscape:current-layer="svg38896" />
  <defs
     id="defs38874">
    <clipPath
       id="clip-0">
      <path
         clip-rule="nonzero"
         d="M 24 5 L 43 5 L 43 24 L 24 24 Z M 24 5 "
         id="path38856" />
    </clipPath>
    <clipPath
       id="clip-1">
      <path
         clip-rule="nonzero"
         d="M 24.75 5.25 L 38.25 5.25 C 40.726562 5.25 42.75 7.273438 42.75 9.75 L 42.75 23.25 L 30.75 23.25 C 27.449219 23.25 24.75 20.550781 24.75 17.25 Z M 24.75 5.25 "
         id="path38859" />
    </clipPath>
    <clipPath
       id="clip-2">
      <path
         clip-rule="nonzero"
         d="M 37 17 L 43 17 L 43 24 L 37 24 Z M 37 17 "
         id="path38862" />
    </clipPath>
    <clipPath
       id="clip-3">
      <path
         clip-rule="nonzero"
         d="M 24.75 5.25 L 38.25 5.25 C 40.726562 5.25 42.75 7.273438 42.75 9.75 L 42.75 23.25 L 30.75 23.25 C 27.449219 23.25 24.75 20.550781 24.75 17.25 Z M 24.75 5.25 "
         id="path38865" />
    </clipPath>
    <clipPath
       id="clip-4">
      <path
         clip-rule="nonzero"
         d="M 27 7 L 41 7 L 41 21 L 27 21 Z M 27 7 "
         id="path38868" />
    </clipPath>
    <clipPath
       id="clip-5">
      <path
         clip-rule="nonzero"
         d="M 24.75 5.25 L 38.25 5.25 C 40.726562 5.25 42.75 7.273438 42.75 9.75 L 42.75 23.25 L 30.75 23.25 C 27.449219 23.25 24.75 20.550781 24.75 17.25 Z M 24.75 5.25 "
         id="path38871" />
    </clipPath>
  </defs>
  <path
     fill-rule="nonzero"
     fill="#11111b"
     fill-opacity="1"
     d="M 9.75 5.25 L 38.25 5.25 C 40.726562 5.25 42.75 7.273438 42.75 9.75 L 42.75 38.25 C 42.75 40.726562 40.726562 42.75 38.25 42.75 L 9.75 42.75 C 7.273438 42.75 5.25 40.726562 5.25 38.25 L 5.25 9.75 C 5.25 7.273438 7.273438 5.25 9.75 5.25 Z M 9.75 5.25 "
     id="path38876"
     style="fill:#2a283e;fill-opacity:1" />
  <g
     clip-path="url(#clip-0)"
     id="g38882"
     style="fill:#ea9a97;fill-opacity:1">
    <g
       clip-path="url(#clip-1)"
       id="g38880"
       style="fill:#ea9a97;fill-opacity:1">
      <path
         fill-rule="nonzero"
         fill="#b4befe"
         fill-opacity="1"
         d="M 24.75 5.25 L 38.25 5.25 C 40.726562 5.25 42.75 7.273438 42.75 9.75 L 42.75 23.25 L 30.75 23.25 C 27.449219 23.25 24.75 20.550781 24.75 17.25 Z M 24.75 5.25 "
         id="path38878"
         style="fill:#ea9a97;fill-opacity:1" />
    </g>
  </g>
  <g
     clip-path="url(#clip-4)"
     id="g38894"
     style="fill:#2a283e;fill-opacity:1">
    <g
       clip-path="url(#clip-5)"
       id="g38892"
       style="fill:#2a283e;fill-opacity:1">
      <path
         fill-rule="nonzero"
         fill="#11111b"
         fill-opacity="1"
         d="M 33.75 7.726562 C 30.148438 7.726562 27.226562 10.648438 27.226562 14.25 C 27.226562 17.851562 30.148438 20.773438 33.75 20.773438 C 37.351562 20.773438 40.273438 17.851562 40.273438 14.25 C 40.273438 10.648438 37.351562 7.726562 33.75 7.726562 Z M 33.75 9.375 C 36.449219 9.375 38.625 11.550781 38.625 14.25 C 38.625 16.949219 36.449219 19.125 33.75 19.125 C 31.050781 19.125 28.875 16.949219 28.875 14.25 C 28.875 11.550781 31.050781 9.375 33.75 9.375 Z M 32.625 10.949219 L 32.625 15.300781 L 36.976562 15.300781 L 36.976562 13.648438 L 34.273438 13.648438 L 34.273438 10.949219 Z M 32.625 10.949219 "
         id="path38890"
         style="fill:#2a283e;fill-opacity:1" />
    </g>
  </g>
</svg>
