<?xml version="1.0" encoding="UTF-8" standalone="no"?>
<svg
   width="48"
   height="48"
   viewBox="0 0 48 48"
   version="1.1"
   id="svg30952"
   sodipodi:docname="folder-cat-se-visiting.svg"
   inkscape:version="1.2.1 (9c6d41e410, 2022-07-14)"
   xmlns:inkscape="http://www.inkscape.org/namespaces/inkscape"
   xmlns:sodipodi="http://sodipodi.sourceforge.net/DTD/sodipodi-0.dtd"
   xmlns="http://www.w3.org/2000/svg"
   xmlns:svg="http://www.w3.org/2000/svg">
  <sodipodi:namedview
     id="namedview30954"
     pagecolor="#ffffff"
     bordercolor="#000000"
     borderopacity="0.25"
     inkscape:showpageshadow="2"
     inkscape:pageopacity="0.0"
     inkscape:pagecheckerboard="0"
     inkscape:deskcolor="#d1d1d1"
     showgrid="false"
     inkscape:zoom="21.395833"
     inkscape:cx="19.980526"
     inkscape:cy="24"
     inkscape:window-width="2560"
     inkscape:window-height="1349"
     inkscape:window-x="-11"
     inkscape:window-y="-11"
     inkscape:window-maximized="1"
     inkscape:current-layer="svg30952" />
  <defs
     id="defs30930">
    <clipPath
       id="clip-0">
      <path
         clip-rule="nonzero"
         d="M 24 5 L 43 5 L 43 24 L 24 24 Z M 24 5 "
         id="path30912" />
    </clipPath>
    <clipPath
       id="clip-1">
      <path
         clip-rule="nonzero"
         d="M 24.75 5.25 L 38.25 5.25 C 40.726562 5.25 42.75 7.273438 42.75 9.75 L 42.75 23.25 L 30.75 23.25 C 27.449219 23.25 24.75 20.550781 24.75 17.25 Z M 24.75 5.25 "
         id="path30915" />
    </clipPath>
    <clipPath
       id="clip-2">
      <path
         clip-rule="nonzero"
         d="M 37 17 L 43 17 L 43 24 L 37 24 Z M 37 17 "
         id="path30918" />
    </clipPath>
    <clipPath
       id="clip-3">
      <path
         clip-rule="nonzero"
         d="M 24.75 5.25 L 38.25 5.25 C 40.726562 5.25 42.75 7.273438 42.75 9.75 L 42.75 23.25 L 30.75 23.25 C 27.449219 23.25 24.75 20.550781 24.75 17.25 Z M 24.75 5.25 "
         id="path30921" />
    </clipPath>
    <clipPath
       id="clip-4">
      <path
         clip-rule="nonzero"
         d="M 24 5 L 43 5 L 43 24 L 24 24 Z M 24 5 "
         id="path30924" />
    </clipPath>
    <clipPath
       id="clip-5">
      <path
         clip-rule="nonzero"
         d="M 24.75 5.25 L 38.25 5.25 C 40.726562 5.25 42.75 7.273438 42.75 9.75 L 42.75 23.25 L 30.75 23.25 C 27.449219 23.25 24.75 20.550781 24.75 17.25 Z M 24.75 5.25 "
         id="path30927" />
    </clipPath>
  </defs>
  <path
     fill-rule="nonzero"
     fill="#11111b"
     fill-opacity="1"
     d="M 9.75 5.25 L 38.25 5.25 C 40.726562 5.25 42.75 7.273438 42.75 9.75 L 42.75 38.25 C 42.75 40.726562 40.726562 42.75 38.25 42.75 L 9.75 42.75 C 7.273438 42.75 5.25 40.726562 5.25 38.25 L 5.25 9.75 C 5.25 7.273438 7.273438 5.25 9.75 5.25 Z M 9.75 5.25 "
     id="path30932"
     style="fill:#2a283e;fill-opacity:1" />
  <g
     clip-path="url(#clip-0)"
     id="g30938">
    <g
       clip-path="url(#clip-1)"
       id="g30936">
      <path
         fill-rule="nonzero"
         fill="#B4BEFE"
         fill-opacity="1"
         d="M 24.75 5.25 L 38.25 5.25 C 40.726562 5.25 42.75 7.273438 42.75 9.75 L 42.75 23.25 L 30.75 23.25 C 27.449219 23.25 24.75 20.550781 24.75 17.25 Z M 24.75 5.25 "
         id="path30934"
         style="fill:#ea9a97;fill-opacity:1" />
    </g>
  </g>
  <g
     clip-path="url(#clip-4)"
     id="g30950">
    <g
       clip-path="url(#clip-5)"
       id="g30948"
       style="fill:#2a283e;fill-opacity:1">
      <path
         fill-rule="nonzero"
         fill="#11111b"
         fill-opacity="1"
         d="M 20.550781 4.875 C 19.726562 4.875 19.050781 5.550781 19.050781 6.375 L 19.050781 7.273438 L 47.324219 23.625 C 47.925781 23.476562 48.375 22.875 48.375 22.199219 L 48.375 20.699219 L 21.074219 4.949219 L 20.550781 4.949219 Z M 27.148438 4.875 L 48.375 17.101562 L 48.375 13.574219 L 33.300781 4.875 Z M 39.375 4.875 L 48.449219 10.125 L 48.449219 6.601562 L 45.523438 4.875 Z M 19.125 10.726562 L 19.125 14.25 L 35.324219 23.625 L 41.398438 23.625 Z M 19.125 17.773438 L 19.125 21.300781 L 23.175781 23.625 L 29.25 23.625 Z M 19.125 17.773438 "
         id="path30946"
         style="fill:#2a283e;fill-opacity:1" />
    </g>
  </g>
</svg>
