<?xml version="1.0" encoding="UTF-8" standalone="no"?>
<svg
   width="48"
   height="48"
   viewBox="0 0 48 48"
   version="1.1"
   id="svg36520"
   sodipodi:docname="folder-cat-se-steam.svg"
   inkscape:version="1.2.1 (9c6d41e410, 2022-07-14)"
   xmlns:inkscape="http://www.inkscape.org/namespaces/inkscape"
   xmlns:sodipodi="http://sodipodi.sourceforge.net/DTD/sodipodi-0.dtd"
   xmlns="http://www.w3.org/2000/svg"
   xmlns:svg="http://www.w3.org/2000/svg">
  <sodipodi:namedview
     id="namedview36522"
     pagecolor="#ffffff"
     bordercolor="#000000"
     borderopacity="0.25"
     inkscape:showpageshadow="2"
     inkscape:pageopacity="0.0"
     inkscape:pagecheckerboard="0"
     inkscape:deskcolor="#d1d1d1"
     showgrid="false"
     inkscape:zoom="21.395833"
     inkscape:cx="19.980526"
     inkscape:cy="24"
     inkscape:window-width="2560"
     inkscape:window-height="1349"
     inkscape:window-x="-11"
     inkscape:window-y="-11"
     inkscape:window-maximized="1"
     inkscape:current-layer="svg36520" />
  <defs
     id="defs36498">
    <clipPath
       id="clip-0">
      <path
         clip-rule="nonzero"
         d="M 24 5 L 43 5 L 43 24 L 24 24 Z M 24 5 "
         id="path36480" />
    </clipPath>
    <clipPath
       id="clip-1">
      <path
         clip-rule="nonzero"
         d="M 24.75 5.25 L 38.25 5.25 C 40.726562 5.25 42.75 7.273438 42.75 9.75 L 42.75 23.25 L 30.75 23.25 C 27.449219 23.25 24.75 20.550781 24.75 17.25 Z M 24.75 5.25 "
         id="path36483" />
    </clipPath>
    <clipPath
       id="clip-2">
      <path
         clip-rule="nonzero"
         d="M 37 17 L 43 17 L 43 24 L 37 24 Z M 37 17 "
         id="path36486" />
    </clipPath>
    <clipPath
       id="clip-3">
      <path
         clip-rule="nonzero"
         d="M 24.75 5.25 L 38.25 5.25 C 40.726562 5.25 42.75 7.273438 42.75 9.75 L 42.75 23.25 L 30.75 23.25 C 27.449219 23.25 24.75 20.550781 24.75 17.25 Z M 24.75 5.25 "
         id="path36489" />
    </clipPath>
    <clipPath
       id="clip-4">
      <path
         clip-rule="nonzero"
         d="M 27 9 L 41 9 L 41 20 L 27 20 Z M 27 9 "
         id="path36492" />
    </clipPath>
    <clipPath
       id="clip-5">
      <path
         clip-rule="nonzero"
         d="M 24.75 5.25 L 38.25 5.25 C 40.726562 5.25 42.75 7.273438 42.75 9.75 L 42.75 23.25 L 30.75 23.25 C 27.449219 23.25 24.75 20.550781 24.75 17.25 Z M 24.75 5.25 "
         id="path36495" />
    </clipPath>
  </defs>
  <path
     fill-rule="nonzero"
     fill="#11111b"
     fill-opacity="1"
     d="M 9.75 5.25 L 38.25 5.25 C 40.726562 5.25 42.75 7.273438 42.75 9.75 L 42.75 38.25 C 42.75 40.726562 40.726562 42.75 38.25 42.75 L 9.75 42.75 C 7.273438 42.75 5.25 40.726562 5.25 38.25 L 5.25 9.75 C 5.25 7.273438 7.273438 5.25 9.75 5.25 Z M 9.75 5.25 "
     id="path36500"
     style="fill:#2a283e;fill-opacity:1" />
  <g
     clip-path="url(#clip-0)"
     id="g36506"
     style="fill:#ea9a97;fill-opacity:1">
    <g
       clip-path="url(#clip-1)"
       id="g36504"
       style="fill:#ea9a97;fill-opacity:1">
      <path
         fill-rule="nonzero"
         fill="#b4befe"
         fill-opacity="1"
         d="M 24.75 5.25 L 38.25 5.25 C 40.726562 5.25 42.75 7.273438 42.75 9.75 L 42.75 23.25 L 30.75 23.25 C 27.449219 23.25 24.75 20.550781 24.75 17.25 Z M 24.75 5.25 "
         id="path36502"
         style="fill:#ea9a97;fill-opacity:1" />
    </g>
  </g>
  <g
     clip-path="url(#clip-4)"
     id="g36518"
     style="fill:#2a283e;fill-opacity:1">
    <g
       clip-path="url(#clip-5)"
       id="g36516"
       style="fill:#2a283e;fill-opacity:1">
      <path
         fill-rule="nonzero"
         fill="#11111b"
         fill-opacity="1"
         d="M 27.75 15.449219 L 30.074219 16.800781 C 30.074219 16.875 30.074219 16.875 30.074219 16.949219 C 30.074219 18.226562 31.125 19.273438 32.398438 19.273438 C 33.675781 19.273438 34.726562 18.226562 34.726562 16.949219 C 34.726562 16.875 34.726562 16.726562 34.726562 16.648438 L 37.574219 14.625 C 39.074219 14.550781 40.273438 13.351562 40.273438 11.851562 C 40.273438 10.351562 39.074219 9.074219 37.5 9.074219 C 36 9.074219 34.726562 10.273438 34.726562 11.851562 L 33 14.699219 C 32.851562 14.625 32.625 14.625 32.476562 14.625 C 32.101562 14.625 31.800781 14.699219 31.425781 14.851562 L 27.75 12.75 M 37.5 9.898438 C 38.550781 9.898438 39.449219 10.800781 39.449219 11.851562 C 39.449219 12.898438 38.550781 13.800781 37.5 13.800781 C 36.449219 13.800781 35.550781 12.898438 35.550781 11.851562 C 35.550781 10.800781 36.449219 9.898438 37.5 9.898438 Z M 37.5 10.726562 C 36.824219 10.726562 36.300781 11.25 36.300781 11.925781 C 36.300781 12.601562 36.824219 13.125 37.5 13.125 C 38.175781 13.125 38.699219 12.601562 38.699219 11.925781 C 38.699219 11.25 38.175781 10.726562 37.5 10.726562 Z M 32.398438 15.449219 C 33.300781 15.449219 33.976562 16.125 33.976562 17.023438 C 33.976562 17.925781 33.300781 18.601562 32.398438 18.601562 C 31.648438 18.601562 30.976562 18.074219 30.824219 17.324219 L 31.351562 17.625 C 31.949219 17.925781 32.625 17.773438 32.925781 17.175781 C 33.226562 16.574219 33.074219 15.898438 32.476562 15.601562 Z M 32.398438 15.449219 "
         id="path36514"
         style="fill:#2a283e;fill-opacity:1" />
    </g>
  </g>
</svg>
