<?xml version="1.0" encoding="UTF-8" standalone="no"?>
<!-- Generator: Adobe Illustrator 25.2.0, SVG Export Plug-In . SVG Version: 6.00 Build 0)  -->

<svg
   version="1.1"
   id="Layer_1"
   x="0px"
   y="0px"
   viewBox="0 0 24 24"
   style="enable-background:new 0 0 24 24;"
   xml:space="preserve"
   sodipodi:docname="windows.svg"
   inkscape:version="1.2.1 (9c6d41e410, 2022-07-14)"
   xmlns:inkscape="http://www.inkscape.org/namespaces/inkscape"
   xmlns:sodipodi="http://sodipodi.sourceforge.net/DTD/sodipodi-0.dtd"
   xmlns="http://www.w3.org/2000/svg"
   xmlns:svg="http://www.w3.org/2000/svg"><defs
   id="defs21" /><sodipodi:namedview
   id="namedview19"
   pagecolor="#ffffff"
   bordercolor="#000000"
   borderopacity="0.25"
   inkscape:showpageshadow="2"
   inkscape:pageopacity="0.0"
   inkscape:pagecheckerboard="0"
   inkscape:deskcolor="#d1d1d1"
   showgrid="false"
   inkscape:zoom="42.791667"
   inkscape:cx="9.9902629"
   inkscape:cy="12"
   inkscape:window-width="2560"
   inkscape:window-height="1349"
   inkscape:window-x="-11"
   inkscape:window-y="-11"
   inkscape:window-maximized="1"
   inkscape:current-layer="g16" />
<style
   type="text/css"
   id="style2">
	.st0{fill:#b4befe;enable-background:new    ;}
	.st1{fill:#11111b;}
</style>
<g
   id="g16">
	<path
   class="st0"
   d="M6,3h12c1.7,0,3,1.3,3,3v12c0,1.7-1.3,3-3,3H6c-1.7,0-3-1.3-3-3V6C3,4.3,4.3,3,6,3z"
   id="path4"
   style="fill:#ea9a97;fill-opacity:1" />
	<g
   id="g14">
		<path
   class="st1"
   d="M7.2,6.4h3.5c0.5,0,0.8,0.4,0.8,0.8v3.5c0,0.5-0.4,0.8-0.8,0.8H7.2c-0.5,0-0.8-0.4-0.8-0.8V7.2    C6.4,6.7,6.7,6.4,7.2,6.4z"
   id="path6"
   style="fill:#2a283e;fill-opacity:1" />
		<path
   class="st1"
   d="M13.4,6.4h3.5c0.5,0,0.8,0.4,0.8,0.8v3.5c0,0.5-0.4,0.8-0.8,0.8h-3.5c-0.5,0-0.8-0.4-0.8-0.8V7.2    C12.6,6.7,13,6.4,13.4,6.4z"
   id="path8"
   style="fill:#2a283e;fill-opacity:1" />
		<path
   class="st1"
   d="M13.4,12.6h3.5c0.5,0,0.8,0.4,0.8,0.8v3.5c0,0.5-0.4,0.8-0.8,0.8h-3.5c-0.5,0-0.8-0.4-0.8-0.8v-3.5    C12.6,13,13,12.6,13.4,12.6z"
   id="path10"
   style="fill:#2a283e;fill-opacity:1" />
		<path
   class="st1"
   d="M7.2,12.6h3.5c0.5,0,0.8,0.4,0.8,0.8v3.5c0,0.5-0.4,0.8-0.8,0.8H7.2c-0.5,0-0.8-0.4-0.8-0.8v-3.5    C6.4,13,6.7,12.6,7.2,12.6z"
   id="path12"
   style="fill:#2a283e;fill-opacity:1" />
	</g>
</g>
</svg>
