<?xml version="1.0" encoding="UTF-8" standalone="no"?>
<svg
   width="48"
   height="48"
   viewBox="0 0 48 48"
   version="1.1"
   id="svg33364"
   sodipodi:docname="folder-cat-se-wine.svg"
   inkscape:version="1.2.1 (9c6d41e410, 2022-07-14)"
   xmlns:inkscape="http://www.inkscape.org/namespaces/inkscape"
   xmlns:sodipodi="http://sodipodi.sourceforge.net/DTD/sodipodi-0.dtd"
   xmlns="http://www.w3.org/2000/svg"
   xmlns:svg="http://www.w3.org/2000/svg">
  <sodipodi:namedview
     id="namedview33366"
     pagecolor="#ffffff"
     bordercolor="#000000"
     borderopacity="0.25"
     inkscape:showpageshadow="2"
     inkscape:pageopacity="0.0"
     inkscape:pagecheckerboard="0"
     inkscape:deskcolor="#d1d1d1"
     showgrid="false"
     inkscape:zoom="21.395833"
     inkscape:cx="12.035054"
     inkscape:cy="24.140215"
     inkscape:window-width="2560"
     inkscape:window-height="1349"
     inkscape:window-x="-11"
     inkscape:window-y="-11"
     inkscape:window-maximized="1"
     inkscape:current-layer="svg33364" />
  <defs
     id="defs33324">
    <clipPath
       id="clip-0">
      <path
         clip-rule="nonzero"
         d="M 24 5 L 43 5 L 43 24 L 24 24 Z M 24 5 "
         id="path33288" />
    </clipPath>
    <clipPath
       id="clip-1">
      <path
         clip-rule="nonzero"
         d="M 24.75 5.25 L 38.25 5.25 C 40.726562 5.25 42.75 7.273438 42.75 9.75 L 42.75 23.25 L 30.75 23.25 C 27.449219 23.25 24.75 20.550781 24.75 17.25 Z M 24.75 5.25 "
         id="path33291" />
    </clipPath>
    <clipPath
       id="clip-2">
      <path
         clip-rule="nonzero"
         d="M 37 17 L 43 17 L 43 24 L 37 24 Z M 37 17 "
         id="path33294" />
    </clipPath>
    <clipPath
       id="clip-3">
      <path
         clip-rule="nonzero"
         d="M 24.75 5.25 L 38.25 5.25 C 40.726562 5.25 42.75 7.273438 42.75 9.75 L 42.75 23.25 L 30.75 23.25 C 27.449219 23.25 24.75 20.550781 24.75 17.25 Z M 24.75 5.25 "
         id="path33297" />
    </clipPath>
    <clipPath
       id="clip-4">
      <path
         clip-rule="nonzero"
         d="M 28 8 L 34 8 L 34 14 L 28 14 Z M 28 8 "
         id="path33300" />
    </clipPath>
    <clipPath
       id="clip-5">
      <path
         clip-rule="nonzero"
         d="M 24.75 5.25 L 38.25 5.25 C 40.726562 5.25 42.75 7.273438 42.75 9.75 L 42.75 23.25 L 30.75 23.25 C 27.449219 23.25 24.75 20.550781 24.75 17.25 Z M 24.75 5.25 "
         id="path33303" />
    </clipPath>
    <clipPath
       id="clip-6">
      <path
         clip-rule="nonzero"
         d="M 34 8 L 40 8 L 40 14 L 34 14 Z M 34 8 "
         id="path33306" />
    </clipPath>
    <clipPath
       id="clip-7">
      <path
         clip-rule="nonzero"
         d="M 24.75 5.25 L 38.25 5.25 C 40.726562 5.25 42.75 7.273438 42.75 9.75 L 42.75 23.25 L 30.75 23.25 C 27.449219 23.25 24.75 20.550781 24.75 17.25 Z M 24.75 5.25 "
         id="path33309" />
    </clipPath>
    <clipPath
       id="clip-8">
      <path
         clip-rule="nonzero"
         d="M 34 14 L 40 14 L 40 20 L 34 20 Z M 34 14 "
         id="path33312" />
    </clipPath>
    <clipPath
       id="clip-9">
      <path
         clip-rule="nonzero"
         d="M 24.75 5.25 L 38.25 5.25 C 40.726562 5.25 42.75 7.273438 42.75 9.75 L 42.75 23.25 L 30.75 23.25 C 27.449219 23.25 24.75 20.550781 24.75 17.25 Z M 24.75 5.25 "
         id="path33315" />
    </clipPath>
    <clipPath
       id="clip-10">
      <path
         clip-rule="nonzero"
         d="M 28 14 L 34 14 L 34 20 L 28 20 Z M 28 14 "
         id="path33318" />
    </clipPath>
    <clipPath
       id="clip-11">
      <path
         clip-rule="nonzero"
         d="M 24.75 5.25 L 38.25 5.25 C 40.726562 5.25 42.75 7.273438 42.75 9.75 L 42.75 23.25 L 30.75 23.25 C 27.449219 23.25 24.75 20.550781 24.75 17.25 Z M 24.75 5.25 "
         id="path33321" />
    </clipPath>
  </defs>
  <path
     fill-rule="nonzero"
     fill="#11111b"
     fill-opacity="1"
     d="m 9.75,5.25 h 28.5 c 2.476562,0 4.5,2.023438 4.5,4.5 v 28.5 c 0,2.476562 -2.023438,4.5 -4.5,4.5 H 9.75 c -2.476562,0 -4.5,-2.023438 -4.5,-4.5 V 9.75 c 0,-2.476562 2.023438,-4.5 4.5,-4.5 z m 0,0"
     id="path33326"
     style="fill:#2a283e;fill-opacity:1;stroke-width:1" />
  <g
     clip-path="url(#clip-0)"
     id="g33332"
     style="fill:#ea9a97;fill-opacity:1">
    <g
       clip-path="url(#clip-1)"
       id="g33330"
       style="fill:#ea9a97;fill-opacity:1">
      <path
         fill-rule="nonzero"
         fill="#b4befe"
         fill-opacity="1"
         d="m 24.75,5.25 h 13.5 c 2.476562,0 4.5,2.023438 4.5,4.5 v 13.5 h -12 c -3.300781,0 -6,-2.699219 -6,-6 z m 0,0"
         id="path33328"
         style="fill:#ea9a97;fill-opacity:1" />
    </g>
  </g>
  <g
     clip-path="url(#clip-4)"
     id="g33344">
    <g
       clip-path="url(#clip-5)"
       id="g33342">
      <path
         fill-rule="nonzero"
         fill="#11111b"
         fill-opacity="1"
         d="m 29.023438,8.773438 h 3.375 c 0.453124,0 0.75,0.375 0.75,0.75 v 3.375 c 0,0.453124 -0.375,0.75 -0.75,0.75 h -3.375 c -0.449219,0 -0.75,-0.375 -0.75,-0.75 v -3.375 c 0,-0.449219 0.300781,-0.75 0.75,-0.75 z m 0,0"
         id="path33340"
         style="fill:#2a283e;fill-opacity:1" />
    </g>
  </g>
  <g
     clip-path="url(#clip-6)"
     id="g33350"
     style="fill:#2a283e;fill-opacity:1">
    <g
       clip-path="url(#clip-7)"
       id="g33348"
       style="fill:#2a283e;fill-opacity:1">
      <path
         fill-rule="nonzero"
         fill="#11111b"
         fill-opacity="1"
         d="m 35.101562,8.773438 h 3.375 c 0.449219,0 0.75,0.375 0.75,0.75 v 3.375 c 0,0.453124 -0.375,0.75 -0.75,0.75 h -3.375 c -0.453124,0 -0.75,-0.375 -0.75,-0.75 v -3.375 c 0,-0.449219 0.375,-0.75 0.75,-0.75 z m 0,0"
         id="path33346"
         style="fill:#2a283e;fill-opacity:1" />
    </g>
  </g>
  <g
     clip-path="url(#clip-8)"
     id="g33356"
     style="fill:#2a283e;fill-opacity:1">
    <g
       clip-path="url(#clip-9)"
       id="g33354"
       style="fill:#2a283e;fill-opacity:1">
      <path
         fill-rule="nonzero"
         fill="#11111b"
         fill-opacity="1"
         d="m 35.101562,14.851562 h 3.375 c 0.449219,0 0.75,0.375 0.75,0.75 v 3.375 c 0,0.449219 -0.375,0.75 -0.75,0.75 h -3.375 c -0.453124,0 -0.75,-0.375 -0.75,-0.75 v -3.375 c 0,-0.375 0.375,-0.75 0.75,-0.75 z m 0,0"
         id="path33352"
         style="fill:#2a283e;fill-opacity:1" />
    </g>
  </g>
  <g
     clip-path="url(#clip-10)"
     id="g33362"
     style="fill:#2a283e;fill-opacity:1">
    <g
       clip-path="url(#clip-11)"
       id="g33360"
       style="fill:#2a283e;fill-opacity:1">
      <path
         fill-rule="nonzero"
         fill="#11111b"
         fill-opacity="1"
         d="m 29.023438,14.851562 h 3.375 c 0.453124,0 0.75,0.375 0.75,0.75 v 3.375 c 0,0.449219 -0.375,0.75 -0.75,0.75 h -3.375 c -0.449219,0 -0.75,-0.375 -0.75,-0.75 v -3.375 c 0,-0.375 0.300781,-0.75 0.75,-0.75 z m 0,0"
         id="path33358"
         style="fill:#2a283e;fill-opacity:1" />
    </g>
  </g>
</svg>
